<svg width="40" height="35" viewBox="0 0 40 35" fill="none" xmlns="http://www.w3.org/2000/svg">
<path d="M26.9742 26.8942C25.0817 29.0293 22.8152 30.5577 20.2417 31.6393C20.0532 31.7186 19.889 31.7286 19.6987 31.6481C16.1972 30.1664 13.3177 27.9239 11.282 24.6289C11.06 24.2695 11.0787 24.0491 11.3914 23.7835C12.0038 23.2633 12.7026 22.8979 13.4152 22.5531C13.6855 22.4224 13.9703 22.3215 14.2381 22.186C15.0772 21.7615 16.1461 21.6783 16.4655 20.608C16.6723 20.5845 16.7135 20.6851 16.7553 20.7639C17.1623 21.5299 17.7809 22.0532 18.5635 22.3841C18.9552 22.5498 19.1326 22.9241 19.3907 23.2203C19.5657 23.4213 19.6907 23.6689 20.0282 23.8909C20.5018 22.6959 21.6841 22.3197 22.565 21.5775C22.8832 21.3094 23.0262 20.8967 23.3127 20.6128C23.3642 20.6288 23.4121 20.6294 23.4209 20.6485C23.7576 21.3806 24.432 21.6547 25.1016 21.9469C26.028 22.351 26.9782 22.7062 27.8261 23.2782C28.949 24.0357 28.9783 24.1721 28.222 25.2825C27.8449 25.8362 27.4413 26.3687 26.9742 26.8942Z" fill="#27AE60"/>
<path d="M17.1601 1.54635C17.9693 1.07137 18.758 0.630245 19.522 0.148778C19.8333 -0.047388 20.065 -0.0519935 20.3777 0.149396C23.3057 2.03476 26.4452 3.43142 29.811 4.2939C31.0961 4.62321 32.4012 4.84792 33.7119 5.03881C34.3742 5.13527 34.4327 5.17545 34.4779 5.86635C34.5249 6.58494 34.5724 7.30479 34.5796 8.0245C34.5955 9.6095 34.5874 11.1948 34.5855 12.7799C34.5853 12.953 34.6133 13.1335 34.4842 13.3476C34.0652 13.2493 33.7359 12.9143 33.3275 12.7838C32.5845 12.5463 32.3522 12.0731 32.4672 11.3013C32.6597 10.0094 32.4274 8.71071 32.4427 7.41437C32.4467 7.07727 32.2554 6.97764 31.9746 6.9335C28.4335 6.37678 25.084 5.22818 21.9058 3.55852C21.3733 3.27876 20.8503 2.97822 20.3371 2.66345C20.0781 2.50459 19.871 2.49024 19.5992 2.65366C16.1143 4.74897 12.3731 6.14843 8.3851 6.87025C7.44725 7.04001 7.47941 6.82897 7.4744 7.97291C7.46873 9.27076 7.46105 10.5687 7.47519 11.8664C7.47879 12.197 7.38895 12.3962 7.07781 12.5382C6.5366 12.7851 6.01612 13.0788 5.51515 13.3383C5.33226 13.2246 5.34903 13.0872 5.3425 12.963C5.21613 10.5603 5.34071 8.16173 5.43999 5.76192C5.46304 5.20484 5.76031 5.09316 6.21759 5.03433C10.0586 4.54022 13.7045 3.40697 17.1601 1.54635Z" fill="#27AE60"/>
<path d="M29.8223 28.2426C27.2513 31.4282 24.0007 33.5533 20.2467 34.9378C20.0228 35.0204 19.8214 34.9962 19.6047 34.915C13.564 32.6532 9.20709 28.6186 6.83938 22.4752C6.70226 22.1194 6.7344 21.9162 7.0774 21.7463C7.43136 21.571 7.77523 21.3714 8.11008 21.1605C8.46072 20.9396 8.62173 21.0377 8.75734 21.4234C9.46363 23.432 10.4766 25.2735 11.8116 26.9208C13.9358 29.5418 16.6135 31.3841 19.7098 32.6285C19.9289 32.7166 20.1026 32.6665 20.2959 32.5881C25.4829 30.4844 29.1397 26.8329 31.1663 21.5321C31.3888 20.9502 31.3869 20.9471 31.916 21.2234C32.1264 21.3334 32.3307 21.4553 32.539 21.5695C33.429 22.0575 33.2745 21.9821 32.9753 22.7574C32.2104 24.7399 31.1685 26.5625 29.8223 28.2426Z" fill="#27AE60"/>
<path d="M6.14034 14.023C8.83082 12.5007 11.6359 11.399 14.7425 10.7954C14.6041 11.3424 14.5097 11.804 14.3651 12.2487C14.2933 12.4694 14.0321 12.4622 13.8392 12.5153C13.5815 12.5861 13.4374 12.7148 13.4424 13.0177C13.4572 13.9144 13.4571 14.8116 13.4451 15.7084C13.44 16.0846 13.6049 16.1326 13.9202 16.0582C14.4958 15.9223 14.4858 15.9362 14.6155 16.5397C14.6923 16.8972 14.8163 17.2443 14.9498 17.7012C9.00676 18.9625 4.07937 21.9866 0.149571 26.6938C0.107459 26.6731 0.0653479 26.6524 0.0232366 26.6317C0.0232366 26.1006 0.066936 25.5649 0.0121663 25.0397C-0.0562162 24.3841 0.164546 23.907 0.65222 23.4948C1.12444 23.0957 1.54416 22.6329 2.01415 22.2308C2.29457 21.9909 2.40432 21.7298 2.3954 21.3606C2.37384 20.468 2.3884 19.5744 2.31635 18.6548C1.46882 19.1834 0.842381 19.9148 0.0166731 20.6383C0.0764934 19.6113 -0.187274 18.7554 0.706825 17.9993C2.42194 16.549 4.16719 15.1617 6.14034 14.023ZM10.1353 14.027C10.1353 15.0417 10.1353 16.0564 10.1353 17.1804C10.8314 16.9494 11.4242 16.7575 12.0129 16.5537C12.1492 16.5065 12.1749 16.3671 12.1748 16.2338C12.1737 15.2596 12.1718 14.2853 12.1675 13.3111C12.1671 13.2294 12.1351 13.1555 11.9964 13.0941C11.4831 13.2348 10.9295 13.4024 10.3952 13.6336C10.2576 13.6931 10.1512 13.78 10.1353 14.027ZM8.90185 17.6046C8.93372 16.5412 8.97671 15.4774 8.8405 14.3536C8.23514 14.5371 7.74961 14.8322 7.23985 15.069C6.97698 15.1911 6.87404 15.3827 6.8799 15.6751C6.89558 16.4579 6.88759 17.2413 6.89981 18.0242C6.9029 18.2222 6.83382 18.4378 7.02484 18.6735C7.62174 18.3129 8.30888 18.1239 8.90185 17.6046ZM5.61905 18.9349C5.61905 18.0185 5.61905 17.1021 5.61905 16.0655C4.91188 16.5069 4.3477 16.8779 3.8181 17.3024C3.64617 17.4402 3.66293 17.6417 3.66244 17.8329C3.66043 18.6012 3.6562 19.3696 3.66389 20.1378C3.66584 20.3336 3.60731 20.5481 3.76711 20.7584C4.26696 20.4181 4.73851 20.0714 5.2358 19.7681C5.53279 19.587 5.66404 19.3628 5.61905 18.9349Z" fill="#27AE60"/>
<path d="M36.1124 15.5063C37.3268 16.3546 38.4168 17.3021 39.4824 18.2824C39.7884 18.5638 39.9434 18.8567 39.906 19.2828C39.8712 19.6782 39.8986 20.0792 39.8986 20.6292C39.0819 19.9 38.4224 19.1656 37.5315 18.4744C37.5315 19.3259 37.5772 20.0414 37.5191 20.7482C37.4565 21.5113 37.6263 22.0874 38.2836 22.5502C38.7834 22.902 39.1818 23.4008 39.632 23.8269C39.8314 24.0157 39.9082 24.2331 39.9028 24.5103C39.8891 25.2099 39.8983 25.91 39.8983 26.5932C39.7332 26.6606 39.6839 26.5614 39.6257 26.4924C36.3502 22.6089 32.3162 19.8855 27.5061 18.3584C26.8151 18.139 26.1071 17.9692 25.399 17.8138C25.0299 17.7327 24.958 17.5878 25.1243 17.2543C25.2598 16.9826 25.3236 16.6817 25.3563 16.3772C25.3971 15.9985 25.5984 15.8716 25.9427 16.0125C26.3427 16.1763 26.4851 16.047 26.4763 15.6177C26.4593 14.785 26.458 13.9512 26.4829 13.1189C26.4935 12.7619 26.3625 12.5689 26.0303 12.5163C25.6869 12.462 25.5201 12.2778 25.4674 11.9221C25.4169 11.5805 25.2965 11.2496 25.1753 10.7964C29.2131 11.5707 32.7868 13.1927 36.1124 15.5063ZM29.2465 17.0246C29.3954 17.048 29.5233 17.1858 29.7304 17.0962C29.8378 16.0467 29.7759 14.9792 29.779 13.9136C29.7795 13.7399 29.6494 13.6709 29.5099 13.6211C29.0648 13.4625 28.617 13.3112 28.1748 13.1447C27.8489 13.022 27.7488 13.1505 27.7517 13.4719C27.76 14.3662 27.7621 15.2607 27.7506 16.1549C27.747 16.4292 27.8628 16.5549 28.1099 16.6281C28.4717 16.7352 28.8252 16.8712 29.2465 17.0246ZM33.0318 18.2401C33.0336 17.3923 33.0374 16.5446 33.0354 15.6968C33.035 15.5244 33.0719 15.3193 32.9019 15.2103C32.3478 14.8551 31.759 14.5728 31.1193 14.3235C30.9901 14.9221 30.976 15.4483 30.9981 15.9731C31.0226 16.558 30.7614 17.2622 31.1123 17.6959C31.4517 18.1153 32.1078 18.2711 32.6248 18.5427C32.6388 18.55 32.6527 18.5575 32.6666 18.5651C32.9386 18.7148 33.0424 18.6068 33.0318 18.2401ZM36.266 17.4662C35.6959 16.9569 35.0743 16.5283 34.3106 16.0674C34.3106 17.2715 34.3095 18.3216 34.3137 19.3716C34.3139 19.4294 34.3417 19.5115 34.3844 19.541C34.9973 19.9658 35.615 20.3835 36.2981 20.8482C36.2981 19.6693 36.2981 18.6026 36.266 17.4662Z" fill="#27AE60"/>
<path d="M21.0982 14.9084C19.2516 14.9221 17.4531 14.9098 15.6559 14.8074C14.8493 14.7615 14.6162 14.5482 14.7247 13.9099C14.7377 13.8332 14.7514 13.7217 14.8023 13.6917C15.3227 13.3849 15.2028 12.8417 15.2884 12.3757C15.5895 10.7373 16.357 9.45075 17.9148 8.74397C18.2532 8.59044 18.4583 8.54146 18.4967 9.03877C18.5482 9.70623 18.6684 10.3682 18.758 11.0327C18.7764 11.1696 18.7402 11.3265 18.9365 11.4305C19.1272 11.2006 19.08 10.9265 19.0523 10.6715C18.9724 9.93691 19.0039 9.19989 18.9787 8.46428C18.9673 8.13347 19.0895 7.94562 19.4215 7.91202C19.5782 7.89615 19.7343 7.85778 19.8907 7.85744C20.7706 7.85553 20.9316 8.02177 20.926 8.90698C20.9216 9.59551 20.9154 10.284 20.9119 10.9726C20.9112 11.1246 20.8726 11.288 21.0627 11.4941C21.352 10.5201 21.2428 9.54775 21.5235 8.59894C22.3758 8.8376 23.0592 9.28117 23.5992 9.96082C24.3088 10.8539 24.6186 11.8979 24.7137 13.0189C24.7336 13.2536 24.7656 13.4416 24.9882 13.5828C25.2808 13.7684 25.2277 14.0843 25.1789 14.3675C25.1336 14.63 24.9187 14.7213 24.6877 14.7424C23.5095 14.8504 22.329 14.9131 21.0982 14.9084Z" fill="#27AE60"/>
<path d="M24.0046 17.427C23.6745 17.7501 23.536 18.1231 23.4209 18.5335C23.0794 19.7503 22.382 20.7001 21.1852 21.1534C19.1973 21.9062 17.168 20.824 16.4816 18.665C16.337 18.2101 16.2071 17.7788 15.8907 17.3922C15.5436 16.9681 15.4668 16.4032 15.3976 15.8598C15.3594 15.5603 15.4773 15.4343 15.7886 15.412C16.8147 15.3383 17.8413 15.3944 18.8591 15.4688C20.3313 15.5764 21.7906 15.369 23.2565 15.4009C23.5712 15.4077 23.8859 15.4174 24.2006 15.4233C24.4543 15.4281 24.5195 15.5732 24.4972 15.8042C24.4427 16.3675 24.3224 16.9091 24.0046 17.427Z" fill="#27AE60"/>
</svg>
